<?xml version="1.0" encoding="UTF-8"?>
<!-- Generator: Adobe Illustrator 19.1.0, SVG Export Plug-In . SVG Version: 6.00 Build 0)  -->
<svg xmlns="http://www.w3.org/2000/svg" xmlns:xlink="http://www.w3.org/1999/xlink" xmlns:dc="http://purl.org/dc/elements/1.1/" xmlns:cc="http://creativecommons.org/ns#" xmlns:rdf="http://www.w3.org/1999/02/22-rdf-syntax-ns#" version="1.1" id="DESIGNS" x="0px" y="0px" width="32px" height="32px" viewBox="0 0 32 32" style="enable-background:new 0 0 32 32;" xml:space="preserve">
<title property="dc:title">to influence</title><desc property="dc:description">An icon for "influence" from the Avocado series on to [icon]. Downloaded from http://www.toicon.com/icons/avocado_influence by 127.0.0.1 on 2017-07-10. Licensed CC-BY, see http://toicon.com/license/ for details.</desc>
<g>
	<path class="avocado_negen" d="M11,31.5c-0.275,0-0.5-0.225-0.5-0.5V16.211c0-0.693,0.203-1.365,0.588-1.941l0.775-1.163   c0.406-0.608,0.66-1.316,0.733-2.048L13.453,2.5H12.59l0.264-1.582C12.895,0.676,13.102,0.5,13.347,0.5h3.307   c0.245,0,0.452,0.176,0.493,0.419L17.41,2.5h-0.863l0.856,8.559c0.073,0.731,0.327,1.439,0.733,2.048l0.775,1.163   c0.385,0.576,0.588,1.248,0.588,1.941V31c0,0.275-0.225,0.5-0.5,0.5H11z" style="fill: #6F9B45;"/>
	<path class="avocado_zes" d="M15,28c-1.66,0-3-1.343-3-3v-6c0-1.657,1.326-3,3-3s3,1.343,3,3v6C18,26.657,16.66,28,15,28z" style="fill: #FFFAEE;"/>
	<polygon class="avocado_zeventien" points="15,17.2 15.618,19 17.5,19 16,20.154 16.545,21.955 15,20.88 13.455,21.955    14,20.154 12.5,19 14.382,19  " style="fill: #CC4121;"/>
	<path class="avocado_een" d="M19.328,13.992l-0.775-1.163c-0.363-0.544-0.587-1.17-0.652-1.821L17.1,3H18l-0.361-2.164   C17.559,0.353,17.142,0,16.653,0h-3.306c-0.489,0-0.906,0.353-0.986,0.836L12,3h0.9l-0.801,8.008   c-0.065,0.651-0.289,1.276-0.652,1.821l-0.775,1.163C10.234,14.649,10,15.421,10,16.211V31c0,0.552,0.448,1,1,1h8   c0.552,0,1-0.448,1-1V16.211C20,15.421,19.766,14.649,19.328,13.992z M13.347,1h3.306l0.167,1H13.18L13.347,1z M19,31h-8V16.211   c0-0.594,0.174-1.17,0.504-1.664l0.775-1.163c0.452-0.678,0.734-1.465,0.815-2.276L13.905,3h2.19l0.811,8.108   c0.081,0.811,0.363,1.598,0.815,2.276l0.775,1.163c0.33,0.494,0.504,1.07,0.504,1.664V31z M13,24h4v1h-4V24z" style="fill: #231F20;"/>
</g>
<metadata><work rdf:about=""><format>image/svg+xml</format><type rdf:resource="http://purl.org/dc/dcmitype/StillImage"/><license rdf:resource="http://creativecommons.org/licenses/by/4.0/"/><attributionname>Shannon E Thomas</attributionname><attributionurl>http://www.toicon.com/icons/avocado_influence</attributionurl></work></metadata></svg>