<?xml version="1.0" encoding="UTF-8"?>
<svg width="485px" height="177px" viewBox="0 0 485 177" version="1.1" xmlns="http://www.w3.org/2000/svg" xmlns:xlink="http://www.w3.org/1999/xlink">
    <!-- Generator: Sketch 48.2 (47327) - http://www.bohemiancoding.com/sketch -->
    <title>logo</title>
    <desc>Created with Sketch.</desc>
    <defs></defs>
    <g id="Page-1" stroke="none" stroke-width="1" fill="none" fill-rule="evenodd">
        <text id="FooBar" font-family="STXihei, STHeiti" font-size="144" font-weight="300" line-spacing="132" letter-spacing="-1.10000002" fill="#000000">
            <tspan x="0.33400006" y="163.159912">FooBa</tspan>
            <tspan x="434.322" y="163.159912">r</tspan>
        </text>
        <g id="egg" transform="translate(121.801900, 100.207480) rotate(170.000000) translate(-121.801900, -100.207480) translate(66.801900, 44.707480)" fill-rule="nonzero">
            <g id="Layer_2" transform="translate(0.000000, 62.000000)" fill="#2B3B47">
                <path d="M48.1745455,13.2461855 C48.1745455,13.2461855 48.0515909,13.4009457 47.8211364,13.6913982 C47.5852273,13.9765294 47.2477273,14.4026742 46.8029545,14.9303665 C46.3597727,15.4596109 45.8172727,16.0979412 45.1836364,16.8194163 C44.8688636,17.1821493 44.5309091,17.5648371 44.1711364,17.9652624 C43.8140909,18.3683484 43.4354545,18.7887285 43.0365909,19.2237421 C42.6402273,19.6611946 42.225,20.1148326 41.79,20.5791131 C41.3570455,21.0453891 40.9097727,21.5278507 40.4422727,22.0160769 C39.5145455,22.9998462 38.5213636,24.0228597 37.4895455,25.0766923 C36.9704545,25.6006154 36.4427273,26.1331855 35.9084091,26.6724072 C35.3684091,27.2058643 34.8218182,27.7459729 34.2709091,28.2902941 C33.7229545,28.8374977 33.1547727,29.3738371 32.5931818,29.9203756 C32.0309091,30.4664706 31.4636364,31.0121222 30.8893182,31.5506787 C30.3165909,32.091009 29.7440909,32.6313394 29.1736364,33.1694525 C28.5970455,33.7015792 28.0227273,34.2317104 27.4529545,34.757629 C26.3034091,35.7999321 25.1668182,36.8202851 24.0493182,37.7905294 C21.8172727,39.7343439 19.6811364,41.4967919 17.8104545,42.9685656 C16.8759091,43.7053394 16.0056818,44.3676154 15.2290909,44.9491855 C14.45,45.5285385 13.7631818,46.0260769 13.1909091,46.4293846 C12.0443182,47.2348914 11.3636364,47.6696833 11.3636364,47.6696833 C7.97181818,49.8361041 3.42204545,48.9099819 1.20136364,45.6010407 C-0.446136364,43.1461629 -0.343636364,40.0651493 1.20136364,37.7559412 C1.20136364,37.7559412 1.64704545,37.0918914 2.47227273,35.9735385 C2.88568182,35.4150271 3.39568182,34.744991 3.98954545,33.9851584 C4.58590909,33.227543 5.26477273,32.3785792 6.01977273,31.4668688 C7.52840909,29.6416742 9.335,27.557733 11.3275,25.3802262 C12.3222727,24.2900317 13.3679545,23.180991 14.4363636,22.0597557 C14.9754545,21.503905 15.5188636,20.9436199 16.0643182,20.3811176 C16.6159091,19.8246018 17.1697727,19.2660905 17.7236364,18.7073575 C18.2759091,18.1470724 18.835,17.5936606 19.3947727,17.0451267 C19.9552273,16.4972579 20.505,15.9429593 21.0656818,15.4083937 C21.6236364,14.8709457 22.1772727,14.3377104 22.7240909,13.810905 C23.2768182,13.2896425 23.8227273,12.77481 24.3597727,12.2684027 C25.4402273,11.2617964 26.4886364,10.2928824 27.4970455,9.38782353 C27.9975,8.93174661 28.4920455,8.49540271 28.97,8.07302715 C29.4459091,7.64865611 29.9109091,7.24357466 30.3593182,6.85689593 C30.8052273,6.46777828 31.2361364,6.09817195 31.6493182,5.7500724 C32.0597727,5.39931222 32.4522727,5.06939367 32.8238636,4.76231222 C33.5634091,4.14438009 34.2177273,3.61513575 34.7602273,3.18256109 C35.3011364,2.74865611 35.7379545,2.419181 36.0302273,2.18925792 C36.3277273,1.96443439 36.4865909,1.84448416 36.4865909,1.84448416 C40.1243182,-0.903728507 45.3570455,-0.254977376 48.1740909,3.29386425 C50.5495455,6.28530317 50.4436364,10.3868914 48.1745455,13.2461855 Z" id="Shape"></path>
            </g>
            <g id="Layer_3" transform="translate(21.000000, 69.000000)" fill="#4E5D66">
                <path d="M14.6406598,21.0639794 C10.3477113,25.356701 -3.29160825,11.7171546 1.0011134,7.42443299 L8.29014433,0.135402062 L21.9296907,13.7749485 L14.6406598,21.0639794 Z" id="Shape"></path>
            </g>
            <g id="Layer_4" transform="translate(19.000000, 0.000000)" fill="#2B3B47">
                <ellipse id="Oval" cx="45.5185123" cy="44.9800983" rx="45.3681838" ry="44.9798771"></ellipse>
            </g>
            <g id="Layer_5" transform="translate(29.000000, 10.000000)" fill="#597B91">
                <ellipse id="Oval" cx="35.5185314" cy="34.9801262" rx="35.3682704" ry="34.9801262"></ellipse>
            </g>
            <g id="Layer_6" transform="translate(6.000000, 21.000000)" fill="#F9F9F7">
                <path d="M50.7481897,46.0335393 C42.0359483,45.9651518 34.8868448,38.9894136 34.7723103,30.4427435 C34.684,23.8566597 38.7032414,18.1831414 44.4756897,15.7277906 C47.7698448,14.3263979 50.5312241,11.9776963 52.5773793,9.08321466 C56.4386034,3.6212356 62.9141724,0.0730052356 70.2284655,0.18295288 C81.5628966,0.353151832 90.8052241,9.43328796 90.9632414,20.5533927 C91.1275345,32.1031728 81.6335,41.5166702 69.8985345,41.5166702 C69.6813448,41.5166702 69.4648276,41.5133717 69.2492069,41.5069948 C65.6269138,41.3992461 62.0156034,42.1851518 58.8713966,43.9531099 C56.4811897,45.2968901 53.7063621,46.0568482 50.7481897,46.0335393 Z M4.31577586,83.2497173 L6.55715517,81.0507644 C7.51982759,80.1060942 7.51982759,78.5745236 6.55715517,77.6298534 C5.59425862,76.6854031 4.03313793,76.6854031 3.07024138,77.6298534 L0.828862069,79.8288063 C-0.133810345,80.7734764 -0.133810345,82.3050471 0.828862069,83.2497173 C1.31031034,83.7218325 1.94125862,83.9582199 2.5722069,83.9582199 C3.20315517,83.9582199 3.83432759,83.7218325 4.31577586,83.2497173 Z" id="Shape"></path>
            </g>
            <g id="Layer_7" transform="translate(64.000000, 30.000000)" fill="#FFA41F">
                <circle id="Oval" cx="11.0805155" cy="11.0703093" r="10.900433"></circle>
            </g>
        </g>
        <path d="M349.5,73.5 L480.5,73.5" id="Line" stroke="#8B572A" stroke-width="7" stroke-linecap="square"></path>
        <g id="beer" transform="translate(349.000000, 0.000000)" fill-rule="nonzero">
            <path d="M2.16679631,71 C1.52505834,71 1,70.4919355 1,69.8709677 L1,36.4764516 C1,34.9116129 1.4737193,33.3941935 2.37215246,32.0935484 L4.18068674,29.4674194 C5.12812535,28.0945161 5.72085787,26.4958065 5.89121013,24.8429032 L7.89109901,5.51612903 L5.87720858,5.51612903 L6.49327703,1.94387097 C6.58895433,1.39741935 7.072008,1 7.64373819,1 L15.360929,1 C15.9326592,1 16.4157129,1.39741935 16.5113902,1.94612903 L17.125125,5.51612903 L15.1112346,5.51612903 L17.1087899,24.8429032 C17.2791421,26.4935484 17.8718747,28.0922581 18.8193133,29.4674194 L20.6278475,32.0935484 C21.5262807,33.3941935 22,34.9116129 22,36.4764516 L22,69.8709677 C22,70.4919355 21.4749417,71 20.8332037,71 L2.16679631,71 Z" id="Shape" fill="#6F9B45"></path>
            <path d="M12,63 C8.12666667,63 5,59.97825 5,56.25 L5,42.75 C5,39.02175 8.094,36 12,36 C15.906,36 19,39.02175 19,42.75 L19,56.25 C19,59.97825 15.8733333,63 12,63 Z" id="Shape" fill="#FFFAEE"></path>
            <polygon id="Shape" fill="#CC4121" points="12 39 13.4832 43.1640379 18 43.1640379 14.4 45.8336488 15.708 50 12 47.5131441 8.292 50 9.6 45.8336488 6 43.1640379 10.5168 43.1640379"></polygon>
            <path d="M21.4544,31.482 L19.6719,28.86525 C18.837,27.64125 18.3218,26.23275 18.1723,24.768 L16.33,6.75 L18.4,6.75 L17.5697,1.881 C17.3857,0.79425 16.4266,0 15.3019,0 L7.6981,0 C6.5734,0 5.6143,0.79425 5.4303,1.881 L4.6,6.75 L6.67,6.75 L4.8277,24.768 C4.6782,26.23275 4.163,27.639 3.3281,28.86525 L1.5456,31.482 C0.5382,32.96025 0,34.69725 0,36.47475 L0,69.75 C0,70.992 1.0304,72 2.3,72 L20.7,72 C21.9696,72 23,70.992 23,69.75 L23,36.47475 C23,34.69725 22.4618,32.96025 21.4544,31.482 Z M7.6981,2.25 L15.3019,2.25 L15.686,4.5 L7.314,4.5 L7.6981,2.25 Z M20.7,69.75 L2.3,69.75 L2.3,36.47475 C2.3,35.13825 2.7002,33.84225 3.4592,32.73075 L5.2417,30.114 C6.2813,28.5885 6.9299,26.81775 7.1162,24.993 L8.9815,6.75 L14.0185,6.75 L15.8838,24.993 C16.0701,26.81775 16.7187,28.5885 17.7583,30.114 L19.5408,32.73075 C20.2998,33.84225 20.7,35.13825 20.7,36.47475 L20.7,69.75 Z M6.9,54 L16.1,54 L16.1,56.25 L6.9,56.25 L6.9,54 Z" id="Shape" fill="#231F20"></path>
        </g>
    </g>
</svg>